<svg xmlns="http://www.w3.org/2000/svg" viewBox="0 0 13 13" width="15" height="15" name="windows"
  fill="currentColor">
  <path
    d="M5.955 1.02C8.3.662 10.65.325 13 0v6.16c-2.348.009-4.696.044-7.045.052V1.02zM0 1.85c1.766-.272 3.539-.507 5.312-.728l.003 5.109c-1.772-.002-3.543.025-5.315.02V1.85zm0 4.938c1.77-.006 3.54.022 5.31.019 0 1.708.005 3.415.002 5.123-1.769-.261-3.54-.49-5.312-.729V6.787zm5.945.068h7.054c.002 2.048 0 4.096 0 6.145a507.54 507.54 0 0 0-7.044-.993l-.01-5.152z"></path>
</svg>