<svg xmlns="http://www.w3.org/2000/svg" width="450" height="32" fill="none"><path fill="url(#a)" fill-rule="evenodd" d="M189.99 15.495v-3H0v3h189.99Z" clip-rule="evenodd"></path><path fill="#FFEBC2" fill-rule="evenodd" d="m191.53 15.495 5.47 4.01-3.18-7.01h-3.83v3h1.54Z" clip-rule="evenodd"></path><path fill="#FFEBC2" d="m229.894 20.486-.045-.372 1.46-1.685s.961-.2.991-.245c3.621-5.257 2.518-10.752 2.451-11.256-1.475 5.546-3.583 8.16-6.451 10.996l-.388-.104c-.968-7.343-1.959-10.744-3.419-17.82v.007c-1.461 7.076-2.452 10.47-3.42 17.82l-.387.104c-2.869-2.836-4.977-5.457-6.452-10.996-.067.505-1.17 6 2.451 11.256.03.037.991.245.991.245l1.46 1.686-.045.371c-.685-.341-9.327-4.752-16.591-13.016.037.334 1.803 9.393 9.901 13.075.052.023 1.252-.505 1.252-.505l2.652 1.166c-.008-.052.544 1.426.544 1.426L223.464 25c.172-4.559 1.021-14.635 1.036-14.746.007.119.864 10.187 1.036 14.746l6.615-2.361s.552-1.478.544-1.426l2.652-1.166s1.2.535 1.252.505c8.098-3.682 9.864-12.74 9.901-13.075-7.279 8.257-15.921 12.667-16.606 13.009Z"></path><path fill="url(#b)" fill-rule="evenodd" d="M260.01 15.495v-3H450v3H260.01Z" clip-rule="evenodd"></path><path fill="#FFEBC2" fill-rule="evenodd" d="m258.47 15.495-5.47 4.01 3.18-7.01h3.83v3h-1.54Z" clip-rule="evenodd"></path><defs><linearGradient id="a" x1="1.542" x2="189.959" y1="15.707" y2="15.707" gradientUnits="userSpaceOnUse"><stop stop-color="#FFEBC2" stop-opacity="0"></stop><stop offset="1" stop-color="#FFEBC2"></stop></linearGradient><linearGradient id="b" x1="448.458" x2="260.041" y1="15.707" y2="15.707" gradientUnits="userSpaceOnUse"><stop stop-color="#FFEBC2" stop-opacity="0"></stop><stop offset="1" stop-color="#FFEBC2"></stop></linearGradient></defs></svg>