<svg xmlns="http://www.w3.org/2000/svg" viewBox="0 0 17 12" width="60" height="60" name="discord"
  fill="currentColor">
  <path
    d="M12.557 11.986s-.524-.62-.961-1.153c1.908-.533 2.636-1.7 2.636-1.7a8.372 8.372 0 0 1-1.675.85c-.728.303-1.428.49-2.112.62-1.399.259-2.68.187-3.773-.015a11.185 11.185 0 0 1-2.142-.62 8.419 8.419 0 0 1-1.063-.489c-.044-.029-.087-.043-.131-.072-.03-.014-.044-.029-.058-.029-.263-.144-.408-.245-.408-.245s.699 1.138 2.549 1.686C4.982 11.366 4.443 12 4.443 12 1.223 11.9 0 9.825 0 9.825c0-4.596 2.098-8.327 2.098-8.327C4.195-.043 6.177 0 6.177 0l.145.173C3.7.908 2.506 2.046 2.506 2.046s.32-.173.859-.404C4.924.965 6.162.792 6.672.735c.087-.015.16-.029.247-.029A12.463 12.463 0 0 1 9.862.677c1.384.159 2.87.562 4.385 1.369 0 0-1.151-1.08-3.627-1.815l.203-.23s1.996-.044 4.08 1.497c0 0 2.097 3.731 2.097 8.327 0-.015-1.224 2.06-4.443 2.16zM11.1 5.316c-.83 0-1.486.706-1.486 1.584 0 .88.67 1.585 1.486 1.585.83 0 1.486-.706 1.486-1.585 0-.878-.67-1.584-1.486-1.584zm-5.317 0c-.83 0-1.486.706-1.486 1.584 0 .88.67 1.585 1.486 1.585.83 0 1.486-.706 1.486-1.585.015-.878-.655-1.584-1.486-1.584z"></path>
</svg>