<svg xmlns="http://www.w3.org/2000/svg" viewBox="0 0 17 17" width="60" height="60" name="database"
  fill="currentColor">
  <path
    d="m12.516 2.642 2.789 4.713a.43.43 0 0 1-.285.642c-2.116.409-3.47 1.977-4.07 2.84a.173.173 0 0 1-.297-.02l-3.087-6.09a.349.349 0 0 1 .034-.372c1.53-1.974 3.463-2.124 4.303-2.082a.756.756 0 0 1 .613.37Zm-2.417 8.365L6.968 4.83a.352.352 0 0 0-.24-.185c-.975-.212-3.078-.363-4.931 1.56a.455.455 0 0 0-.083.512l2.488 5.17a.453.453 0 0 0 .68.166c.7-.527 2.303-1.357 5.029-.798a.173.173 0 0 0 .188-.248Z"></path>
  <path
    d="M10.417 12.072a.55.55 0 0 1 .368.288l.156.306a.22.22 0 0 1-.222.319c-1.043-.12-3.834-.216-5.767 1.94a.556.556 0 0 1-.915-.127L.812 8.118a.56.56 0 0 1 .137-.67l.006-.004a.255.255 0 0 1 .395.082l2.24 4.656a1.137 1.137 0 0 0 1.02.64c.246.002.485-.079.68-.227.42-.317 1.354-.848 2.885-.848.695 0 1.447.11 2.236.325h.006Zm5.798-2.742a.254.254 0 0 1-.23.136c-.334-.006-.47.05-.47.05l.541.859a.341.341 0 0 1-.285.522c-2.242.024-3.376.89-3.913 1.538a.244.244 0 0 1-.405-.045l-.263-.52a.158.158 0 0 1 .003-.144 6.772 6.772 0 0 1 1.022-1.37c.873-.918 1.86-1.488 2.934-1.696a1.1 1.1 0 0 0 .39-.158.223.223 0 0 1 .3.06l.358.502a.253.253 0 0 1 .018.266Z"></path>
</svg>